<svg width="131" height="107" viewBox="0 0 131 107" fill="none" xmlns="http://www.w3.org/2000/svg">
<path d="M10.2664 88.3025L10.2714 88.3099C17.9748 99.7109 29.3002 105.4 44.1 105.4C58.9969 105.4 70.3737 99.7131 78.0786 88.3099L78.0835 88.3025C83.9265 79.4867 86.8 67.8233 86.8 53.4C86.8 48.5157 86.4705 43.9479 85.8077 39.7H103.739V102V103H104.739H128.289H129.289V102V4.65002V3.65002H128.289H108.039H107.2L107.054 4.47624C106.207 9.27635 103.482 13.3618 98.7574 16.7363L98.7495 16.742C94.1473 20.0978 88.409 21.8525 81.4746 21.9501L80.4887 21.964V22.6096C79.7524 21.1769 78.951 19.8065 78.0844 18.4988C70.5759 7.08297 59.1906 1.40002 44.1 1.40002C29.1064 1.40002 17.7725 7.08523 10.2655 18.4991C4.42313 27.3146 1.54999 38.9776 1.54999 53.4C1.54999 67.8233 4.42346 79.4867 10.2664 88.3025ZM27.25 53.4C27.25 44.4756 28.4422 37.5965 30.7498 32.6866C32.1833 29.8233 34.006 27.729 36.1965 26.3455C38.3879 24.9615 41.0087 24.25 44.1 24.25C47.1913 24.25 49.8121 24.9615 52.0035 26.3455C54.1967 27.7307 56.0212 29.8285 57.4556 32.6972C59.8558 37.4976 61.1 44.3689 61.1 53.4C61.1 62.4311 59.8558 69.3024 57.4556 74.1028C56.0212 76.9715 54.1967 79.0694 52.0035 80.4545C49.8121 81.8386 47.1913 82.55 44.1 82.55C41.0087 82.55 38.3879 81.8386 36.1965 80.4545C34.006 79.0711 32.1833 76.9768 30.7498 74.1135C28.4422 69.2036 27.25 62.3245 27.25 53.4Z" stroke="url(#paint0_linear)" stroke-width="2"/>
<defs>
<linearGradient id="paint0_linear" x1="68" y1="-14" x2="68" y2="83" gradientUnits="userSpaceOnUse">
<stop stop-color="#8B8B8B"/>
<stop offset="1" stop-color="#8B8B8B" stop-opacity="0"/>
</linearGradient>
</defs>
</svg>
