<svg width="159" height="107" viewBox="0 0 159 107" fill="none" xmlns="http://www.w3.org/2000/svg">
<path d="M10.2714 88.3098L10.2664 88.3024C4.42346 79.4866 1.54999 67.8231 1.54999 53.3999C1.54999 38.9775 4.42313 27.3145 10.2655 18.4989C17.7725 7.0851 29.1064 1.3999 44.1 1.3999C59.1906 1.3999 70.5759 7.08284 78.0844 18.4987C79.9386 21.2965 81.4937 24.381 82.7528 27.7495C84.1083 21.5187 87.1949 16.0239 92.0054 11.2873L92.0108 11.282C98.8366 4.66314 108.007 1.3999 119.407 1.3999C130.505 1.3999 139.517 4.56174 146.339 10.9684C153.142 17.2575 156.557 25.0729 156.557 34.3499C156.557 47.3724 149.906 57.7682 136.868 65.5098L136.867 65.5099L118.431 76.4519C115.961 78.0249 114.195 79.6132 113.062 81.1999H156.307H157.307V82.1999V102V103H156.307H82.357H81.357V102C81.357 92.2832 83.0778 83.8272 86.5575 76.663L86.5601 76.6577C90.1647 69.3454 96.2721 63.2128 104.802 58.2367L10.2714 88.3098ZM10.2714 88.3098C17.9748 99.7108 29.3002 105.4 44.1 105.4C58.9969 105.4 70.3737 99.7129 78.0786 88.3098L78.0835 88.3024C83.9265 79.4866 86.8 67.8231 86.8 53.3999C86.8 50.3122 86.6683 47.351 86.404 44.5171L106.05 44.6499L107.424 44.6592L107.011 43.3488C106.443 41.5513 106.157 39.6533 106.157 37.6499C106.157 33.6459 107.247 30.4421 109.362 27.9563C111.531 25.5208 114.63 24.2499 118.807 24.2499C122.837 24.2499 125.746 25.3027 127.7 27.257L127.708 27.2649L127.716 27.2725C129.811 29.2762 130.857 31.7615 130.857 34.7999C130.857 37.8216 130.106 40.3626 128.642 42.4702C127.158 44.5071 124.544 46.6707 120.7 48.9381C120.7 48.9383 120.699 48.9384 120.699 48.9385L104.803 58.2361L10.2714 88.3098ZM27.25 53.3999C27.25 44.4755 28.4422 37.5964 30.7498 32.6864C32.1833 29.8232 34.006 27.7289 36.1965 26.3454C38.3879 24.9614 41.0087 24.2499 44.1 24.2499C47.1913 24.2499 49.8121 24.9614 52.0035 26.3454C54.1967 27.7306 56.0212 29.8284 57.4556 32.6971C59.8558 37.4975 61.1 44.3688 61.1 53.3999C61.1 62.431 59.8558 69.3023 57.4556 74.1027C56.0212 76.9714 54.1967 79.0692 52.0035 80.4544C49.8121 81.8384 47.1913 82.5499 44.1 82.5499C41.0087 82.5499 38.3879 81.8384 36.1965 80.4544C34.006 79.071 32.1833 76.9766 30.7498 74.1134C28.4422 69.2034 27.25 62.3243 27.25 53.3999Z" stroke="url(#paint0_linear)" stroke-width="2"/>
<defs>
<linearGradient id="paint0_linear" x1="79" y1="-14.0001" x2="79" y2="82.9999" gradientUnits="userSpaceOnUse">
<stop stop-color="#8B8B8B"/>
<stop offset="1" stop-color="#8B8B8B" stop-opacity="0"/>
</linearGradient>
</defs>
</svg>
