<svg width="159" height="107" viewBox="0 0 159 107" fill="none" xmlns="http://www.w3.org/2000/svg">
<path d="M10.2664 88.3024L10.2714 88.3098C17.9748 99.7108 29.3002 105.4 44.1 105.4C58.9969 105.4 70.3737 99.7129 78.0786 88.3098L78.0835 88.3024C79.1652 86.6704 80.145 84.9409 81.0237 83.1144C83.0529 87.8509 86.228 92.0997 90.536 95.8538L90.5422 95.8592C97.7553 102.042 106.95 105.1 118.043 105.1C129.834 105.1 139.347 101.842 146.473 95.2331L146.473 95.2327C153.663 88.5565 157.293 80.5466 157.293 71.2499C157.293 62.8152 154.559 55.7123 149.069 50.0125C144.273 44.85 138.431 41.7784 131.58 40.8104L153.606 23.7403L153.993 23.4401V22.9499V4.6499V3.6499H152.993H82.793H81.793V4.6499V24.4499V25.3685C80.7284 22.914 79.4926 20.6236 78.0844 18.4987C70.5759 7.08284 59.1906 1.3999 44.1 1.3999C29.1064 1.3999 17.7725 7.0851 10.2655 18.4989C4.42313 27.3145 1.54999 38.9775 1.54999 53.3999C1.54999 67.8231 4.42346 79.4866 10.2664 88.3024ZM102.112 67.7165L85.119 70.8467C86.2424 65.5717 86.8 59.7536 86.8 53.3999C86.8 42.4922 85.1566 33.1628 81.8282 25.4499H82.793H120.643L98.8095 43.3262L98.1144 43.8953L98.606 44.6472L108.806 60.2472L109.307 61.0141L110.115 60.5814C112.779 59.1545 115.517 58.4499 118.343 58.4499C121.924 58.4499 124.996 59.5271 127.608 61.6726L127.617 61.6795L127.625 61.6862C130.133 63.6568 131.443 66.5859 131.443 70.6499C131.443 74.0742 130.206 76.9653 127.699 79.3796L127.693 79.3861L127.686 79.3928C125.31 81.7691 122.084 82.9999 117.893 82.9999C113.633 82.9999 110.199 81.6382 107.506 78.9489C104.895 76.2418 103.482 72.8323 103.292 68.6545L103.24 67.5087L102.112 67.7165ZM27.25 53.3999C27.25 44.4755 28.4422 37.5964 30.7498 32.6864C32.1833 29.8232 34.006 27.7289 36.1965 26.3454C38.3879 24.9614 41.0087 24.2499 44.1 24.2499C47.1913 24.2499 49.8121 24.9614 52.0035 26.3454C54.1967 27.7306 56.0212 29.8284 57.4556 32.6971C59.8558 37.4975 61.1 44.3688 61.1 53.3999C61.1 62.431 59.8558 69.3023 57.4556 74.1027C56.0212 76.9714 54.1967 79.0692 52.0035 80.4544C49.8121 81.8384 47.1913 82.5499 44.1 82.5499C41.0087 82.5499 38.3879 81.8384 36.1965 80.4544C34.006 79.071 32.1833 76.9766 30.7498 74.1134C28.4422 69.2034 27.25 62.3243 27.25 53.3999Z" stroke="url(#paint0_linear)" stroke-width="2"/>
<defs>
<linearGradient id="paint0_linear" x1="79" y1="-14.0001" x2="79" y2="82.9999" gradientUnits="userSpaceOnUse">
<stop stop-color="#8B8B8B"/>
<stop offset="1" stop-color="#8B8B8B" stop-opacity="0"/>
</linearGradient>
</defs>
</svg>
