<svg width="170" height="107" viewBox="0 0 170 107" fill="none" xmlns="http://www.w3.org/2000/svg">
<path d="M10.2664 88.3024L10.2714 88.3098C17.9748 99.7108 29.3002 105.4 44.1 105.4C58.9969 105.4 70.3737 99.7129 78.0786 88.3098L78.0835 88.3024C79.6249 85.9768 80.9596 83.4531 82.0894 80.7328V81.7499V82.7499H83.0894H127.089V102V103H128.089H151.789H152.789V102V82.7499H167.389H168.389V81.7499V61.9499V60.9499H167.389H152.789V4.6499V3.6499H151.789H123.589H123.094L122.794 4.04345L86.7786 51.2641C86.5062 37.8219 83.6356 26.8749 78.0844 18.4987C70.5759 7.08284 59.1906 1.3999 44.1 1.3999C29.1064 1.3999 17.7725 7.0851 10.2655 18.4989C4.42313 27.3145 1.54999 38.9775 1.54999 53.3999C1.54999 67.8231 4.42346 79.4866 10.2664 88.3024ZM27.25 53.3999C27.25 44.4755 28.4422 37.5964 30.7498 32.6864C32.1833 29.8232 34.006 27.7289 36.1965 26.3454C38.3879 24.9614 41.0087 24.2499 44.1 24.2499C47.1913 24.2499 49.8121 24.9614 52.0035 26.3454C54.1967 27.7306 56.0212 29.8284 57.4556 32.6971C59.8558 37.4975 61.1 44.3688 61.1 53.3999C61.1 62.431 59.8558 69.3023 57.4556 74.1027C56.0212 76.9714 54.1967 79.0692 52.0035 80.4544C49.8121 81.8384 47.1913 82.5499 44.1 82.5499C41.0087 82.5499 38.3879 81.8384 36.1965 80.4544C34.006 79.071 32.1833 76.9766 30.7498 74.1134C28.4422 69.2034 27.25 62.3243 27.25 53.3999ZM105.658 60.9499L127.089 32.8131V60.9499H105.658Z" stroke="url(#paint0_linear)" stroke-width="2"/>
<defs>
<linearGradient id="paint0_linear" x1="83.5" y1="-14.0001" x2="83.5" y2="82.9999" gradientUnits="userSpaceOnUse">
<stop stop-color="#8B8B8B"/>
<stop offset="1" stop-color="#8B8B8B" stop-opacity="0"/>
</linearGradient>
</defs>
</svg>
