<svg width="97" height="8" viewBox="0 0 97 8" fill="none" xmlns="http://www.w3.org/2000/svg">
<path d="M2.18377 5.08706L3.26616 1.88901H3.28668L4.36907 5.08706H2.18377ZM5.27192 7.70776H6.46717L3.74836 0.387883H2.79934L0.0805359 7.70776H1.28091L1.85546 6.07108H4.69225L5.27192 7.70776Z" fill="#C4C4C4"/>
<path d="M9.3212 7.70776H11.8605C12.4213 7.70776 12.895 7.58727 13.2814 7.34628C13.6713 7.12204 13.9757 6.83754 14.1945 6.4928C14.2766 6.36227 14.3467 6.23676 14.4049 6.11626C14.4596 5.99243 14.5006 5.85185 14.528 5.69454C14.5861 5.38327 14.6152 4.83436 14.6152 4.04782C14.6152 3.30814 14.5964 2.78768 14.5588 2.48645C14.5109 2.18522 14.3963 1.89738 14.2151 1.62292C13.7089 0.806257 12.9497 0.394577 11.9374 0.387883H9.3212V7.70776ZM10.4549 1.43717H11.8092C12.3837 1.42378 12.8283 1.62962 13.1429 2.05469C13.2968 2.22538 13.3943 2.44796 13.4353 2.72241C13.4661 2.99686 13.4815 3.45206 13.4815 4.08799C13.4815 4.74065 13.4661 5.1858 13.4353 5.42344C13.4011 5.66442 13.3208 5.86357 13.1942 6.02087C12.907 6.44594 12.4453 6.65848 11.8092 6.65848H10.4549V1.43717Z" fill="#C4C4C4"/>
<path d="M17.9873 7.70776H22.7632V6.65848H19.121V4.50971H22.2297V3.52569H19.121V1.43717H22.7632V0.387883H17.9873V7.70776Z" fill="#C4C4C4"/>
<path d="M25.6275 4.04782C25.6275 4.88457 25.6531 5.45021 25.7044 5.74475C25.7318 5.90206 25.766 6.03259 25.807 6.13635C25.8515 6.23676 25.9011 6.34219 25.9558 6.45264C26.137 6.79068 26.4277 7.08857 26.8279 7.34628C27.2212 7.61404 27.7119 7.75462 28.3001 7.76801C28.8952 7.75462 29.3911 7.61404 29.7878 7.34628C30.1811 7.08857 30.4649 6.79068 30.6393 6.45264C30.7659 6.27525 30.8531 6.03928 30.9009 5.74475C30.9454 5.45021 30.9676 4.88457 30.9676 4.04782C30.9676 3.19768 30.9454 2.6287 30.9009 2.34085C30.8531 2.05301 30.7659 1.8204 30.6393 1.64301C30.4649 1.30496 30.1811 1.00373 29.7878 0.739317C29.3911 0.471557 28.8952 0.334331 28.3001 0.327637C27.7119 0.334331 27.2212 0.471557 26.8279 0.739317C26.4277 1.00373 26.137 1.30496 25.9558 1.64301C25.8429 1.8204 25.7591 2.05301 25.7044 2.34085C25.6531 2.6287 25.6275 3.19768 25.6275 4.04782ZM26.7663 4.04782C26.7663 3.32822 26.7937 2.83788 26.8484 2.57682C26.8963 2.32914 26.9937 2.12665 27.1408 1.96934C27.2605 1.81872 27.4178 1.69321 27.6127 1.5928C27.8042 1.49574 28.0334 1.44386 28.3001 1.43717C28.5703 1.44386 28.8046 1.49574 29.0029 1.5928C29.191 1.69321 29.3415 1.81872 29.4543 1.96934C29.6014 2.12665 29.7023 2.32914 29.757 2.57682C29.8083 2.83788 29.8339 3.32822 29.8339 4.04782C29.8339 4.76742 29.8083 5.25441 29.757 5.50878C29.7023 5.76316 29.6014 5.969 29.4543 6.1263C29.3415 6.27692 29.191 6.39909 29.0029 6.4928C28.8046 6.60325 28.5703 6.65848 28.3001 6.65848C28.0334 6.65848 27.8042 6.60325 27.6127 6.4928C27.4178 6.39909 27.2605 6.27692 27.1408 6.1263C26.9937 5.969 26.8963 5.76316 26.8484 5.50878C26.7937 5.25441 26.7663 4.76742 26.7663 4.04782Z" fill="#C4C4C4"/>
<path d="M34.3449 7.70776H39.1208V6.65848H35.4786V0.387883H34.3449V7.70776Z" fill="#C4C4C4"/>
<path d="M43.5651 5.08706L44.6474 1.88901H44.668L45.7504 5.08706H43.5651ZM46.6532 7.70776H47.8485L45.1297 0.387883H44.1806L41.4618 7.70776H42.6622L43.2367 6.07108H46.0735L46.6532 7.70776Z" fill="#C4C4C4"/>
<path d="M56.5985 5.08706L57.6809 1.88901H57.7014L58.7838 5.08706H56.5985ZM59.6867 7.70776H60.8819L58.1631 0.387883H57.2141L54.4953 7.70776H55.6957L56.2702 6.07108H59.107L59.6867 7.70776Z" fill="#C4C4C4"/>
<path d="M63.7359 7.70776H66.2752C66.8361 7.70776 67.3097 7.58727 67.6962 7.34628C68.086 7.12204 68.3904 6.83754 68.6093 6.4928C68.6914 6.36227 68.7615 6.23676 68.8196 6.11626C68.8743 5.99243 68.9154 5.85185 68.9427 5.69454C69.0009 5.38327 69.0299 4.83436 69.0299 4.04782C69.0299 3.30814 69.0111 2.78768 68.9735 2.48645C68.9256 2.18522 68.8111 1.89738 68.6298 1.62292C68.1237 0.806257 67.3644 0.394577 66.3522 0.387883H63.7359V7.70776ZM64.8696 1.43717H66.2239C66.7984 1.42378 67.243 1.62962 67.5577 2.05469C67.7116 2.22538 67.809 2.44796 67.8501 2.72241C67.8808 2.99686 67.8962 3.45206 67.8962 4.08799C67.8962 4.74065 67.8808 5.1858 67.8501 5.42344C67.8159 5.66442 67.7355 5.86357 67.609 6.02087C67.3217 6.44594 66.86 6.65848 66.2239 6.65848H64.8696V1.43717Z" fill="#C4C4C4"/>
<path d="M72.4021 7.70776H77.1779V6.65848H73.5358V4.50971H76.6444V3.52569H73.5358V1.43717H77.1779V0.387883H72.4021V7.70776Z" fill="#C4C4C4"/>
<path d="M80.0422 4.04782C80.0422 4.88457 80.0679 5.45021 80.1192 5.74475C80.1465 5.90206 80.1807 6.03259 80.2218 6.13635C80.2662 6.23676 80.3158 6.34219 80.3705 6.45264C80.5518 6.79068 80.8425 7.08857 81.2426 7.34628C81.6359 7.61404 82.1267 7.75462 82.7149 7.76801C83.3099 7.75462 83.8058 7.61404 84.2025 7.34628C84.5958 7.08857 84.8797 6.79068 85.0541 6.45264C85.1806 6.27525 85.2678 6.03928 85.3157 5.74475C85.3601 5.45021 85.3824 4.88457 85.3824 4.04782C85.3824 3.19768 85.3601 2.6287 85.3157 2.34085C85.2678 2.05301 85.1806 1.8204 85.0541 1.64301C84.8797 1.30496 84.5958 1.00373 84.2025 0.739317C83.8058 0.471557 83.3099 0.334331 82.7149 0.327637C82.1267 0.334331 81.6359 0.471557 81.2426 0.739317C80.8425 1.00373 80.5518 1.30496 80.3705 1.64301C80.2577 1.8204 80.1739 2.05301 80.1192 2.34085C80.0679 2.6287 80.0422 3.19768 80.0422 4.04782ZM81.181 4.04782C81.181 3.32822 81.2084 2.83788 81.2631 2.57682C81.311 2.32914 81.4085 2.12665 81.5555 1.96934C81.6752 1.81872 81.8325 1.69321 82.0275 1.5928C82.219 1.49574 82.4481 1.44386 82.7149 1.43717C82.985 1.44386 83.2193 1.49574 83.4176 1.5928C83.6057 1.69321 83.7562 1.81872 83.8691 1.96934C84.0161 2.12665 84.117 2.32914 84.1717 2.57682C84.223 2.83788 84.2487 3.32822 84.2487 4.04782C84.2487 4.76742 84.223 5.25441 84.1717 5.50878C84.117 5.76316 84.0161 5.969 83.8691 6.1263C83.7562 6.27692 83.6057 6.39909 83.4176 6.4928C83.2193 6.60325 82.985 6.65848 82.7149 6.65848C82.4481 6.65848 82.219 6.60325 82.0275 6.4928C81.8325 6.39909 81.6752 6.27692 81.5555 6.1263C81.4085 5.969 81.311 5.76316 81.2631 5.50878C81.2084 5.25441 81.181 4.76742 81.181 4.04782Z" fill="#C4C4C4"/>
<path d="M89.8318 7.70776H90.9706V1.37692H93.0174V0.387883H87.785V1.37692H89.8318V7.70776Z" fill="#C4C4C4"/>
<path d="M95.8663 7.70776H97V0.387883H95.8663V7.70776Z" fill="#C4C4C4"/>
</svg>
