<svg width="36" height="28" viewBox="0 0 36 28" fill="none" xmlns="http://www.w3.org/2000/svg">
<path d="M6.28304 3.54808H6.50107C8.0907 3.56987 9.61635 4.16933 10.786 5.23172V3.61574C10.7921 3.56726 10.8167 3.54505 10.8576 3.54505H12.7821C12.8302 3.5501 12.8537 3.57534 12.8537 3.61574V16.1598C12.8568 16.18 12.8496 16.2001 12.8353 16.2133C12.821 16.2264 12.8005 16.2335 12.781 16.2315H10.8566C10.8361 16.2345 10.8157 16.2274 10.8024 16.2133C10.7891 16.1991 10.7819 16.1789 10.7839 16.1598V14.5438C9.66306 15.5911 8.18904 16.1901 6.64643 16.2304H6.10083C4.3535 16.1557 2.71262 15.378 1.56103 14.0792C0.577906 12.9366 0.0262851 11.4934 0 9.99481V9.81503C0.00307089 7.789 1.00623 5.89023 2.68805 4.72673C3.73215 3.97328 4.98917 3.56222 6.28304 3.54808ZM2.0708 9.78271V9.99885C2.07555 10.7476 2.28352 11.4815 2.67308 12.1241C3.06264 12.7667 3.61956 13.2946 4.28594 13.653C4.87176 13.9882 5.53338 14.1733 6.21036 14.1913H6.57375C8.86156 14.1135 10.6918 12.2925 10.7502 10.0342V9.74635C10.7164 8.1021 9.72653 6.6255 8.20746 5.94881C7.65426 5.72611 7.06459 5.60461 6.46729 5.59026H6.35674C5.23086 5.60417 4.15452 6.04925 3.355 6.83151C2.55548 7.61377 2.09435 8.67199 2.0708 9.78271Z" fill="#C4C4C4"/>
<path d="M24.2191 0C24.2672 0.00605991 24.2907 0.0302995 24.2907 0.0706989V16.1598C24.2938 16.18 24.2866 16.2001 24.2723 16.2133C24.258 16.2264 24.2375 16.2335 24.218 16.2315H22.2936C22.2732 16.2345 22.2527 16.2274 22.2394 16.2133C22.2261 16.1991 22.2189 16.1789 22.2209 16.1598V14.5438C21.0988 15.5904 19.624 16.1904 18.0804 16.2284H17.5358C16.6711 16.1911 15.8231 15.9813 15.0428 15.6118C14.2626 15.2422 13.5663 14.7205 12.996 14.0782C12.0129 12.9356 11.4612 11.4923 11.435 9.9938V9.81402C11.438 7.78799 12.4402 5.89023 14.122 4.72673C15.1661 3.97227 16.4231 3.55919 17.717 3.54505H17.935C19.5247 3.56726 21.0509 4.16619 22.2209 5.22869V0.0706989C22.2261 0.0232296 22.2517 0 22.2926 0H24.2191ZM13.5058 9.78271V9.99885C13.5105 10.7476 13.7185 11.4815 14.108 12.1241C14.4976 12.7667 15.0545 13.2946 15.7209 13.653C16.3067 13.9882 16.9683 14.1733 17.6453 14.1913H18.0087C20.2965 14.1145 22.1278 12.2925 22.1851 10.0342V9.74635C22.1513 8.1021 21.1615 6.6255 19.6434 5.94881C19.0902 5.72632 18.5006 5.60484 17.9033 5.59026H17.7937C16.6679 5.60417 15.5915 6.04925 14.792 6.83151C13.9925 7.61377 13.5324 8.67199 13.5088 9.78271H13.5058Z" fill="#C4C4C4"/>
<path d="M29.1397 3.73694H29.4672C30.4224 3.74803 31.362 3.97699 32.2126 4.40591C33.0632 4.83482 33.8017 5.45207 34.3704 6.20938C35.1688 7.22644 35.6151 8.46973 35.6397 9.75645V10.2614C35.6397 10.6924 35.6035 10.9078 35.5312 10.9078H25.0021V10.9432C25.2252 11.8899 25.7594 12.7372 26.5215 13.3531C27.2836 13.9689 28.2308 14.3187 29.2154 14.3478H29.3966C30.0538 14.3394 30.7008 14.1871 31.2912 13.9021C31.8815 13.617 32.4004 13.2063 32.8104 12.6995H34.9907C34.353 14.1099 33.1792 15.2165 31.7223 15.781C30.9729 16.0838 30.1716 16.2419 29.3618 16.2466H29.2901C28.1882 16.2484 27.1051 15.9647 26.1491 15.4239C25.1931 14.8832 24.3977 14.1043 23.8424 13.1651C23.2825 12.1925 22.9825 11.0947 22.9723 9.97562C22.9703 8.34639 23.615 6.78117 24.7683 5.61525C25.9217 4.44933 27.4919 3.77545 29.1427 3.73795L29.1397 3.73694ZM24.9991 9.03936C29.8115 9.06225 32.6927 9.07404 33.6426 9.07471V9.02926C33.384 7.93806 32.7241 6.98038 31.7909 6.34169C31.0979 5.8973 30.2933 5.64783 29.4672 5.6347H29.1038C28.4089 5.65782 27.7298 5.84574 27.124 6.18258C26.5182 6.51941 26.0035 6.99525 25.6235 7.56983C25.3344 8.02173 25.1246 8.51856 25.0032 9.03936H24.9991ZM19.4694 18.104C18.8953 17.2518 18.1179 16.5517 17.2055 16.0652C16.2932 15.5786 15.2737 15.3205 14.2366 15.3134H14.0319C12.9948 15.3205 11.9754 15.5786 11.063 16.0652C10.1506 16.5517 9.37327 17.2518 8.79912 18.104C8.11034 19.0976 7.7317 20.2686 7.70998 21.4723V21.8328C7.73013 22.8835 8.01666 23.9125 8.54342 24.8258C9.07018 25.7392 9.8204 26.5078 10.7256 27.0615C11.0377 27.2356 11.3608 27.3897 11.6929 27.5231C12.3706 27.8281 13.1055 27.9877 13.8497 27.9917H14.4311C15.1753 27.9877 15.9103 27.8281 16.5869 27.5231C16.9194 27.3899 17.2429 27.2358 17.5552 27.0615C18.4602 26.5077 19.2103 25.739 19.7368 24.8256C20.2634 23.9123 20.5498 22.8834 20.5698 21.8328V21.4733C20.548 20.2692 20.169 19.0978 19.4797 18.104H19.4694ZM13.9418 25.9536C13.2662 25.9354 12.6029 25.7516 12.0174 25.4163C11.7062 25.2143 11.4032 25.0123 11.1473 24.7547L11.1309 24.785C10.9257 24.5899 10.7348 24.3807 10.5598 24.1588C10.0532 23.4704 9.775 22.6441 9.76338 21.7934V21.5107C9.75314 20.7491 9.97322 20.0027 10.398 19.3665L10.4369 19.4139C10.6294 19.1089 10.8546 18.8261 11.1074 18.5686L11.4094 18.311L11.4913 18.2474C11.8976 17.931 12.3585 17.6895 12.8517 17.5343C13.1025 17.4616 13.3573 17.4091 13.6163 17.3768H13.647C13.7289 17.3667 13.8108 17.3667 13.8896 17.3626L14.0821 17.3525H14.1599L14.3523 17.3626L14.5939 17.3768H14.6246C14.8836 17.4091 15.1385 17.4626 15.3892 17.5343C15.8824 17.6897 16.3431 17.9312 16.7496 18.2474L16.8315 18.311L17.1386 18.5686C17.3915 18.8261 17.6167 19.1099 17.8091 19.4139L17.848 19.3665C18.2721 20.0025 18.4931 20.7494 18.4827 21.5107V21.7934C18.4704 22.6443 18.1915 23.4706 17.6842 24.1588C17.5098 24.3806 17.3193 24.5896 17.1141 24.784L17.0977 24.7537C16.8315 25.0012 16.5388 25.2234 16.2276 25.4152C15.6412 25.7489 14.9799 25.9336 14.3032 25.9526L13.9418 25.9536Z" fill="#C4C4C4"/>
<path d="M26.6829 25.7465V27.9685L26.4291 27.9786H26.2837C22.295 28.2055 19.8861 26.6289 19.0569 23.2488L19.0201 21.8147C19.0446 21.1104 19.0569 20.334 19.0569 19.4856V15.3649C19.0538 15.3447 19.061 15.3245 19.0753 15.3114C19.0897 15.2982 19.1101 15.2912 19.1296 15.2932H21.054C21.0745 15.2902 21.095 15.2972 21.1083 15.3114C21.1216 15.3255 21.1287 15.3457 21.1267 15.3649V20.8117L21.272 22.8893C21.6713 24.8608 23.0634 25.8761 25.4485 25.9354C25.8672 25.9331 26.2832 25.8695 26.6829 25.7465Z" fill="#C4C4C4"/>
<path d="M29.1857 15.3114H29.4038C30.9935 15.3336 32.5187 15.9335 33.6887 16.995V15.379C33.6948 15.3306 33.7194 15.3083 33.7603 15.3083H35.6899C35.738 15.3144 35.7615 15.3386 35.7615 15.379V27.92C35.7646 27.9402 35.7574 27.9604 35.7431 27.9735C35.7288 27.9867 35.7083 27.9937 35.6888 27.9917H33.7644C33.7439 27.9947 33.7235 27.9877 33.7102 27.9735C33.6969 27.9594 33.6897 27.9392 33.6917 27.92V26.304C32.5697 27.35 31.0953 27.9497 29.5522 27.9877H29.0076C27.2603 27.9129 25.6296 27.1363 24.4678 25.8364C23.4843 24.694 22.9323 23.2507 22.9058 21.752V21.5733C22.9088 19.5462 23.912 17.6485 25.5938 16.485C26.6379 15.7345 27.8929 15.3235 29.1847 15.3104L29.1857 15.3114ZM24.9735 21.546V21.7611C24.9837 23.2761 25.8333 24.685 27.1886 25.4173C27.7747 25.7518 28.4362 25.9365 29.113 25.9546H29.4764C31.7642 25.8768 33.5945 24.0558 33.6528 21.7975V21.5127C33.6201 19.8684 32.6292 18.3898 31.1101 17.7151C30.5568 17.4929 29.9672 17.3714 29.37 17.3566H29.2615C28.1356 17.3705 27.0592 17.8156 26.2597 18.5978C25.4602 19.3801 25.0001 20.4383 24.9766 21.549L24.9735 21.546Z" fill="#C4C4C4"/>
</svg>
