<svg width="178" height="29" viewBox="0 0 178 29" fill="none" xmlns="http://www.w3.org/2000/svg">
<path d="M6.28246 3.62501H6.50047C8.08996 3.64728 9.61546 4.25974 10.785 5.34516V3.69415C10.7911 3.64462 10.8157 3.62192 10.8566 3.62192H12.7809C12.829 3.62707 12.8525 3.65287 12.8525 3.69415V16.5102C12.8556 16.5308 12.8484 16.5514 12.8341 16.5648C12.8198 16.5783 12.7993 16.5855 12.7799 16.5834H10.8556C10.8351 16.5865 10.8147 16.5793 10.8014 16.5648C10.7881 16.5504 10.7809 16.5298 10.7829 16.5102V14.8591C9.66217 15.9292 8.18828 16.5411 6.64581 16.5824H6.10027C4.3531 16.506 2.71237 15.7115 1.56089 14.3845C0.577853 13.2172 0.0262827 11.7426 0 10.2115V10.0279C0.00307061 7.95789 1.00614 6.01795 2.6878 4.82922C3.73181 4.05943 4.98871 3.63946 6.28246 3.62501ZM2.07061 9.99483V10.2157C2.07536 10.9807 2.28331 11.7304 2.67283 12.387C3.06235 13.0436 3.61923 13.5829 4.28554 13.949C4.87132 14.2915 5.53287 14.4806 6.20979 14.499H6.57314C8.86074 14.4196 10.6908 12.5591 10.7492 10.2518V9.95769C10.7154 8.27778 9.72563 6.76916 8.20671 6.0778C7.65355 5.85027 7.06394 5.72614 6.4667 5.71148H6.35615C5.23038 5.72569 4.15413 6.18042 3.35469 6.97964C2.55525 7.77887 2.09416 8.86003 2.07061 9.99483Z" fill="white"/>
<path d="M24.2168 0C24.2649 0.00619131 24.2885 0.0309565 24.2885 0.0722319V16.5102C24.2916 16.5308 24.2844 16.5514 24.2701 16.5648C24.2557 16.5783 24.2353 16.5855 24.2158 16.5834H22.2916C22.2711 16.5865 22.2506 16.5793 22.2373 16.5648C22.224 16.5504 22.2169 16.5298 22.2189 16.5102V14.8591C21.0969 15.9284 19.6222 16.5415 18.0787 16.5803H17.5342C16.6696 16.5422 15.8216 16.3279 15.0415 15.9503C14.2613 15.5727 13.5651 15.0397 12.9948 14.3834C12.0118 13.2161 11.4602 11.7415 11.4339 10.2105V10.0268C11.437 7.95686 12.439 6.01795 14.1207 4.82922C15.1647 4.0584 16.4216 3.63636 17.7153 3.62192H17.9334C19.5229 3.64462 21.049 4.25652 22.2189 5.34207V0.0722319C22.224 0.0237333 22.2496 0 22.2906 0H24.2168ZM13.5045 9.99483V10.2157C13.5093 10.9807 13.7172 11.7304 14.1067 12.387C14.4963 13.0436 15.0531 13.5829 15.7195 13.949C16.3052 14.2915 16.9668 14.4806 17.6437 14.499H18.0071C20.2947 14.4206 22.1258 12.5591 22.1831 10.2518V9.95769C22.1493 8.27778 21.1595 6.76916 19.6416 6.0778C19.0884 5.85049 18.4988 5.72637 17.9016 5.71148H17.7921C16.6663 5.72569 15.5901 6.18042 14.7907 6.97964C13.9912 7.77887 13.5311 8.86003 13.5076 9.99483H13.5045Z" fill="white"/>
<path d="M29.137 3.81797H29.4645C30.4196 3.8293 31.3591 4.06322 32.2097 4.50144C33.0602 4.93966 33.7986 5.57029 34.3672 6.34403C35.1656 7.38313 35.6119 8.65338 35.6364 9.96801V10.4839C35.6364 10.9242 35.6003 11.1444 35.5279 11.1444H24.9998V11.1805C25.2228 12.1477 25.757 13.0134 26.519 13.6426C27.2811 14.2718 28.2282 14.6292 29.2127 14.659H29.3939C30.051 14.6503 30.698 14.4947 31.2883 14.2035C31.8786 13.9123 32.3974 13.4927 32.8074 12.9749H34.9875C34.3498 14.4158 33.1761 15.5465 31.7194 16.1232C30.9701 16.4326 30.1688 16.5941 29.3591 16.5989H29.2874C28.1856 16.6007 27.1026 16.3108 26.1466 15.7584C25.1907 15.2059 24.3954 14.4101 23.8402 13.4506C23.2803 12.4569 22.9804 11.3353 22.9702 10.1919C22.9681 8.52738 23.6128 6.92821 24.766 5.73701C25.9193 4.54581 27.4894 3.85731 29.14 3.81901L29.137 3.81797ZM24.9968 9.23537C29.8088 9.25876 32.6897 9.2708 33.6395 9.27148V9.22505C33.3809 8.11019 32.7211 7.13174 31.7879 6.4792C31.095 6.02517 30.2905 5.7703 29.4645 5.75688H29.1012C28.4062 5.7805 27.7272 5.9725 27.1215 6.31664C26.5157 6.66077 26.0011 7.14693 25.6211 7.73398C25.332 8.19567 25.1223 8.70327 25.0009 9.23537H24.9968ZM19.4676 18.4965C18.8935 17.6259 18.1162 16.9106 17.204 16.4135C16.2917 15.9164 15.2723 15.6527 14.2353 15.6454H14.0306C12.9936 15.6527 11.9743 15.9164 11.062 16.4135C10.1497 16.9106 9.37241 17.6259 8.79831 18.4965C8.1096 19.5117 7.73099 20.7081 7.70927 21.9379V22.3063C7.72941 23.3797 8.01592 24.431 8.54263 25.3641C9.06935 26.2973 9.81949 27.0826 10.7246 27.6483C11.0367 27.8261 11.3598 27.9836 11.6918 28.1199C12.3694 28.4315 13.1043 28.5946 13.8484 28.5987H14.4298C15.1739 28.5946 15.9088 28.4315 16.5854 28.1199C16.9178 27.9839 17.2413 27.8263 17.5536 27.6483C18.4585 27.0824 19.2085 26.2971 19.735 25.364C20.2616 24.4308 20.5479 23.3796 20.5679 22.3063V21.9389C20.5461 20.7087 20.1671 19.5119 19.4779 18.4965H19.4676ZM13.9405 26.5163C13.265 26.4978 12.6018 26.31 12.0163 25.9674C11.7051 25.761 11.4022 25.5546 11.1463 25.2915L11.1299 25.3225C10.9247 25.1231 10.7339 24.9093 10.5588 24.6827C10.0523 23.9793 9.7741 23.1351 9.76248 22.266V21.9771C9.75224 21.199 9.9723 20.4365 10.3971 19.7864L10.436 19.8349C10.6284 19.5233 10.8536 19.2343 11.1064 18.9712L11.4083 18.7081L11.4902 18.6431C11.8966 18.3198 12.3573 18.0731 12.8505 17.9145C13.1013 17.8403 13.3561 17.7866 13.6151 17.7536H13.6458C13.7277 17.7433 13.8095 17.7433 13.8884 17.7391L14.0808 17.7288H14.1586L14.351 17.7391L14.5925 17.7536H14.6232C14.8822 17.7866 15.1371 17.8413 15.3878 17.9145C15.8809 18.0733 16.3416 18.32 16.7481 18.6431L16.83 18.7081L17.1371 18.9712C17.3899 19.2343 17.615 19.5243 17.8075 19.8349L17.8464 19.7864C18.2704 20.4362 18.4914 21.1993 18.481 21.9771V22.266C18.4687 23.1353 18.1898 23.9796 17.6826 24.6827C17.5082 24.9093 17.3177 25.1228 17.1125 25.3214L17.0961 25.2905C16.83 25.5433 16.5373 25.7703 16.2261 25.9663C15.6397 26.3073 14.9785 26.4959 14.3019 26.5153L13.9405 26.5163Z" fill="white"/>
<path d="M26.6805 26.3048V28.5749L26.4267 28.5853H26.2813C22.2929 28.8171 19.8842 27.2063 19.0552 23.753L19.0183 22.2877C19.0429 21.5681 19.0552 20.7749 19.0552 19.9081V15.6981C19.0521 15.6774 19.0592 15.6568 19.0736 15.6434C19.0879 15.63 19.1084 15.6227 19.1278 15.6248H21.0521C21.0725 15.6217 21.093 15.6289 21.1063 15.6434C21.1196 15.6578 21.1268 15.6785 21.1247 15.6981V21.263L21.2701 23.3856C21.6693 25.3998 23.0613 26.4372 25.4461 26.4978C25.8648 26.4954 26.2808 26.4304 26.6805 26.3048Z" fill="white"/>
<path d="M29.183 15.6434H29.4011C30.9906 15.6661 32.5157 16.279 33.6856 17.3635V15.7125C33.6917 15.663 33.7163 15.6403 33.7572 15.6403H35.6866C35.7347 15.6465 35.7582 15.6712 35.7582 15.7125V28.5254C35.7613 28.5461 35.7541 28.5667 35.7398 28.5801C35.7255 28.5935 35.705 28.6007 35.6856 28.5987H33.7613C33.7408 28.6018 33.7204 28.5946 33.7071 28.5801C33.6938 28.5657 33.6866 28.545 33.6886 28.5254V26.8744C32.5667 27.9431 31.0925 28.5558 29.5495 28.5946H29.0049C27.2578 28.5182 25.6273 27.7247 24.4656 26.3966C23.4822 25.2295 22.9302 23.7549 22.9036 22.2237V22.0411C22.9067 19.9701 23.9098 18.0312 25.5915 16.8424C26.6355 16.0757 27.8903 15.6558 29.182 15.6423L29.183 15.6434ZM24.9712 22.0132V22.233C24.9814 23.7808 25.831 25.2203 27.1861 25.9684C27.7722 26.3101 28.4336 26.4988 29.1104 26.5174H29.4737C31.7613 26.4379 33.5914 24.5774 33.6497 22.2701V21.9791C33.617 20.2992 32.6262 18.7886 31.1073 18.0993C30.554 17.8722 29.9645 17.7481 29.3673 17.7329H29.2588C28.133 17.7471 27.0568 18.2019 26.2573 19.0011C25.4579 19.8003 24.9978 20.8815 24.9743 22.0163L24.9712 22.0132Z" fill="white"/>
<path d="M60.6016 16H62.5352C62.9622 16 63.3229 15.9062 63.6172 15.7188C63.9141 15.5443 64.1458 15.3229 64.3125 15.0547C64.375 14.9531 64.4284 14.8555 64.4727 14.7617C64.5143 14.6654 64.5456 14.556 64.5664 14.4336C64.6107 14.1914 64.6328 13.7643 64.6328 13.1523C64.6328 12.5768 64.6185 12.1719 64.5898 11.9375C64.5534 11.7031 64.4661 11.4792 64.3281 11.2656C63.9427 10.6302 63.3646 10.3099 62.5938 10.3047H60.6016V16ZM61.4648 11.1211H62.4961C62.9336 11.1107 63.2721 11.2708 63.5117 11.6016C63.6289 11.7344 63.7031 11.9076 63.7344 12.1211C63.7578 12.3346 63.7695 12.6888 63.7695 13.1836C63.7695 13.6914 63.7578 14.0378 63.7344 14.2227C63.7083 14.4102 63.6471 14.5651 63.5508 14.6875C63.332 15.0182 62.9805 15.1836 62.4961 15.1836H61.4648V11.1211ZM67.2006 16H70.8373V15.1836H68.0639V13.5117H70.4311V12.7461H68.0639V11.1211H70.8373V10.3047H67.2006V16ZM73.2841 14.6172L72.7177 15.2656C73.3244 15.7865 74.0497 16.0469 74.8934 16.0469C76.1981 16.0312 76.8648 15.4792 76.8934 14.3906C76.8934 13.987 76.7671 13.6328 76.5145 13.3281C76.2593 13.0182 75.8648 12.8268 75.3309 12.7539C75.0601 12.7201 74.8466 12.6901 74.6903 12.6641C74.4091 12.612 74.2046 12.5182 74.077 12.3828C73.9494 12.25 73.8856 12.1016 73.8856 11.9375C73.8908 11.6641 73.9859 11.4583 74.1708 11.3203C74.3479 11.1875 74.5692 11.1211 74.8348 11.1211C75.3479 11.1315 75.8179 11.2773 76.245 11.5586L76.7255 10.8477C76.202 10.4701 75.5861 10.2734 74.8778 10.2578C74.2893 10.263 73.8348 10.4167 73.5145 10.7188C73.1838 11.0234 73.0184 11.4245 73.0184 11.9219C73.0184 12.3359 73.1499 12.6875 73.413 12.9766C73.6682 13.2578 74.0406 13.4388 74.5302 13.5195C74.8036 13.5586 75.0549 13.5938 75.2841 13.625C75.7841 13.7109 76.0315 13.9661 76.0262 14.3906C76.0158 14.9089 75.6408 15.1732 74.9012 15.1836C74.2762 15.1784 73.7372 14.9896 73.2841 14.6172ZM79.3675 16H80.2308V10.3047H79.3675V16ZM84.8377 13.6797H85.9978V13.9766C85.9926 14.3333 85.8806 14.6211 85.6619 14.8398C85.4431 15.069 85.1658 15.1836 84.8298 15.1836C84.6267 15.1836 84.4522 15.1406 84.3064 15.0547C84.158 14.9818 84.0382 14.8867 83.947 14.7695C83.8351 14.6471 83.7608 14.487 83.7244 14.2891C83.6827 14.0911 83.6619 13.7122 83.6619 13.1523C83.6619 12.5924 83.6827 12.2109 83.7244 12.0078C83.7608 11.8151 83.8351 11.6576 83.947 11.5352C84.0382 11.418 84.158 11.3203 84.3064 11.2422C84.4522 11.1667 84.6267 11.1263 84.8298 11.1211C85.1059 11.1263 85.3403 11.2057 85.533 11.3594C85.7179 11.5208 85.8455 11.7161 85.9158 11.9453H86.8298C86.7387 11.4688 86.5199 11.069 86.1736 10.7461C85.8272 10.4258 85.3793 10.263 84.8298 10.2578C84.3819 10.263 84.0082 10.3698 83.7087 10.5781C83.4041 10.7839 83.1827 11.0182 83.0447 11.2812C82.9587 11.4193 82.8949 11.6003 82.8533 11.8242C82.8142 12.0482 82.7947 12.4909 82.7947 13.1523C82.7947 13.8034 82.8142 14.2435 82.8533 14.4727C82.8741 14.5951 82.9002 14.6966 82.9314 14.7773C82.9653 14.8555 83.003 14.9375 83.0447 15.0234C83.1827 15.2865 83.4041 15.5182 83.7087 15.7188C84.0082 15.9271 84.3819 16.0365 84.8298 16.0469C85.4106 16.0365 85.8923 15.8398 86.2752 15.457C86.6554 15.0716 86.8507 14.5938 86.8611 14.0234V12.8633H84.8377V13.6797ZM89.4328 16H90.2961V11.9531H90.3117L92.8859 16H93.7023V10.3047H92.8391V14.3516H92.8234L90.2453 10.3047H89.4328V16ZM100.998 11.5195C100.998 11.3659 101.054 11.2357 101.166 11.1289C101.268 11.0273 101.398 10.9766 101.557 10.9766C101.723 10.9766 101.86 11.0273 101.967 11.1289C102.068 11.2357 102.119 11.3659 102.119 11.5195C102.119 11.6628 102.071 11.7943 101.975 11.9141C101.868 12.0312 101.683 12.1432 101.42 12.25C101.298 12.1328 101.2 12.0091 101.127 11.8789C101.041 11.7565 100.998 11.6367 100.998 11.5195ZM103.053 15.4258L103.58 16H104.541L103.58 14.8555C103.742 14.681 103.886 14.4844 104.014 14.2656C104.141 14.0521 104.246 13.8385 104.326 13.625L103.596 13.3359C103.489 13.6771 103.324 13.9948 103.1 14.2891L101.885 12.8242C102.531 12.5039 102.848 12.0794 102.838 11.5508C102.833 11.194 102.716 10.8906 102.486 10.6406C102.257 10.3906 101.947 10.263 101.557 10.2578C101.169 10.263 100.86 10.3906 100.631 10.6406C100.397 10.8906 100.279 11.194 100.279 11.5508C100.279 11.7435 100.326 11.931 100.42 12.1133C100.501 12.2982 100.61 12.4714 100.748 12.6328C100.029 13.0312 99.6674 13.5859 99.6622 14.2969C99.6674 14.776 99.8354 15.1836 100.166 15.5195C100.486 15.8607 100.919 16.0365 101.463 16.0469C101.765 16.0417 102.048 15.9805 102.311 15.8633C102.576 15.7461 102.824 15.6003 103.053 15.4258ZM101.205 13.1758L102.58 14.8242C102.187 15.1654 101.805 15.3333 101.436 15.3281C101.149 15.3281 100.904 15.2266 100.701 15.0234C100.493 14.8307 100.386 14.5859 100.381 14.2891C100.376 13.8724 100.65 13.5013 101.205 13.1758ZM110.181 16H112.114C112.541 16 112.902 15.9062 113.196 15.7188C113.493 15.5443 113.725 15.3229 113.892 15.0547C113.954 14.9531 114.007 14.8555 114.052 14.7617C114.093 14.6654 114.125 14.556 114.145 14.4336C114.19 14.1914 114.212 13.7643 114.212 13.1523C114.212 12.5768 114.198 12.1719 114.169 11.9375C114.132 11.7031 114.045 11.4792 113.907 11.2656C113.522 10.6302 112.944 10.3099 112.173 10.3047H110.181V16ZM111.044 11.1211H112.075C112.513 11.1107 112.851 11.2708 113.091 11.6016C113.208 11.7344 113.282 11.9076 113.313 12.1211C113.337 12.3346 113.349 12.6888 113.349 13.1836C113.349 13.6914 113.337 14.0378 113.313 14.2227C113.287 14.4102 113.226 14.5651 113.13 14.6875C112.911 15.0182 112.56 15.1836 112.075 15.1836H111.044V11.1211ZM116.78 16H120.416V15.1836H117.643V13.5117H120.01V12.7461H117.643V11.1211H120.416V10.3047H116.78V16ZM124.078 16H124.75L126.633 10.3047H125.719L124.422 14.6406H124.406L123.113 10.3047H122.199L124.078 16ZM128.806 16H132.443V15.1836H129.669V13.5117H132.036V12.7461H129.669V11.1211H132.443V10.3047H128.806V16ZM134.819 16H138.456V15.1836H135.682V10.3047H134.819V16ZM140.637 13.1523C140.637 13.8034 140.656 14.2435 140.695 14.4727C140.716 14.5951 140.742 14.6966 140.774 14.7773C140.807 14.8555 140.845 14.9375 140.887 15.0234C141.025 15.2865 141.246 15.5182 141.551 15.7188C141.85 15.9271 142.224 16.0365 142.672 16.0469C143.125 16.0365 143.503 15.9271 143.805 15.7188C144.104 15.5182 144.32 15.2865 144.453 15.0234C144.55 14.8854 144.616 14.7018 144.652 14.4727C144.686 14.2435 144.703 13.8034 144.703 13.1523C144.703 12.4909 144.686 12.0482 144.652 11.8242C144.616 11.6003 144.55 11.4193 144.453 11.2812C144.32 11.0182 144.104 10.7839 143.805 10.5781C143.503 10.3698 143.125 10.263 142.672 10.2578C142.224 10.263 141.85 10.3698 141.551 10.5781C141.246 10.7839 141.025 11.0182 140.887 11.2812C140.801 11.4193 140.737 11.6003 140.695 11.8242C140.656 12.0482 140.637 12.4909 140.637 13.1523ZM141.504 13.1523C141.504 12.5924 141.525 12.2109 141.567 12.0078C141.603 11.8151 141.677 11.6576 141.789 11.5352C141.88 11.418 142 11.3203 142.149 11.2422C142.294 11.1667 142.469 11.1263 142.672 11.1211C142.878 11.1263 143.056 11.1667 143.207 11.2422C143.35 11.3203 143.465 11.418 143.551 11.5352C143.663 11.6576 143.74 11.8151 143.781 12.0078C143.82 12.2109 143.84 12.5924 143.84 13.1523C143.84 13.7122 143.82 14.0911 143.781 14.2891C143.74 14.487 143.663 14.6471 143.551 14.7695C143.465 14.8867 143.35 14.9818 143.207 15.0547C143.056 15.1406 142.878 15.1836 142.672 15.1836C142.469 15.1836 142.294 15.1406 142.149 15.0547C142 14.9818 141.88 14.8867 141.789 14.7695C141.677 14.6471 141.603 14.487 141.567 14.2891C141.525 14.0911 141.504 13.7122 141.504 13.1523ZM148.138 11.1211H149.384C149.619 11.1159 149.824 11.1693 150.002 11.2812C150.119 11.349 150.21 11.4414 150.275 11.5586C150.338 11.6888 150.369 11.849 150.369 12.0391C150.369 12.2682 150.292 12.4766 150.138 12.6641C149.977 12.8568 149.736 12.9557 149.416 12.9609H148.138V11.1211ZM147.275 16H148.138V13.7773H149.451C150.037 13.7669 150.482 13.5794 150.787 13.2148C151.084 12.8685 151.232 12.4844 151.232 12.0625C151.232 11.75 151.173 11.4792 151.056 11.25C150.944 11.013 150.798 10.8307 150.619 10.7031C150.405 10.5339 150.194 10.4219 149.986 10.3672C149.778 10.3255 149.561 10.3047 149.338 10.3047H147.275V16ZM153.577 16H154.44V12.4492H154.456L155.647 15.1836H156.366L157.558 12.4492H157.577V16H158.44V10.3047H157.624L156.022 14.0156L154.39 10.3047H153.577V16ZM161.2 16H164.836V15.1836H162.063V13.5117H164.43V12.7461H162.063V11.1211H164.836V10.3047H161.2V16ZM167.213 16H168.076V11.9531H168.092L170.666 16H171.482V10.3047H170.619V14.3516H170.603L168.025 10.3047H167.213V16ZM175.214 16H176.081V11.0742H177.64V10.3047H173.656V11.0742H175.214V16Z" fill="white"/>
</svg>
